<mxfile host="app.diagrams.net" modified="2022-05-28T18:00:51.909Z" agent="5.0 (Windows)" etag="Qqyj9Rd3JEdN-v4Xzb0s" version="18.1.3" type="github">
  <diagram name="Page-1" id="58cdce13-f638-feb5-8d6f-7d28b1aa9fa0">
    <mxGraphModel dx="1578" dy="1701" grid="1" gridSize="10" guides="1" tooltips="1" connect="1" arrows="1" fold="1" page="1" pageScale="1" pageWidth="1100" pageHeight="850" background="none" math="0" shadow="0">
      <root>
        <mxCell id="0" />
        <mxCell id="1" parent="0" />
        <mxCell id="2a3bc250acf0617d-7" value="Ã‰tat du distributeur" style="swimlane;whiteSpace=wrap;html=1;rounded=1;shadow=0;comic=0;labelBackgroundColor=none;strokeWidth=1;fontFamily=Verdana;fontSize=12;align=center;" parent="1" vertex="1">
          <mxGeometry y="-30" width="1060" height="600" as="geometry" />
        </mxCell>
        <mxCell id="xkrA2vsa821dHbCefsV8-16" value="" style="ellipse;html=1;shape=startState;fillColor=#000000;strokeColor=#ff0000;" vertex="1" parent="2a3bc250acf0617d-7">
          <mxGeometry x="40" y="50" width="30" height="30" as="geometry" />
        </mxCell>
        <mxCell id="xkrA2vsa821dHbCefsV8-22" value="Accueil" style="rounded=1;whiteSpace=wrap;html=1;arcSize=40;fontColor=#000000;fillColor=#ffffc0;strokeColor=#ff0000;" vertex="1" parent="2a3bc250acf0617d-7">
          <mxGeometry x="110" y="45" width="70" height="40" as="geometry" />
        </mxCell>
        <mxCell id="xkrA2vsa821dHbCefsV8-17" value="" style="edgeStyle=orthogonalEdgeStyle;html=1;verticalAlign=bottom;endArrow=open;endSize=8;strokeColor=#ff0000;rounded=0;" edge="1" source="xkrA2vsa821dHbCefsV8-16" parent="2a3bc250acf0617d-7" target="xkrA2vsa821dHbCefsV8-22">
          <mxGeometry relative="1" as="geometry">
            <mxPoint x="120" y="65" as="targetPoint" />
          </mxGeometry>
        </mxCell>
        <mxCell id="xkrA2vsa821dHbCefsV8-26" value="" style="edgeStyle=orthogonalEdgeStyle;rounded=0;orthogonalLoop=1;jettySize=auto;html=1;" edge="1" parent="2a3bc250acf0617d-7" source="xkrA2vsa821dHbCefsV8-23" target="xkrA2vsa821dHbCefsV8-25">
          <mxGeometry relative="1" as="geometry" />
        </mxCell>
        <mxCell id="xkrA2vsa821dHbCefsV8-23" value="Affiche filmet horaire" style="rounded=1;whiteSpace=wrap;html=1;arcSize=40;fontColor=#000000;fillColor=#ffffc0;strokeColor=#ff0000;" vertex="1" parent="2a3bc250acf0617d-7">
          <mxGeometry x="250" y="45" width="80" height="40" as="geometry" />
        </mxCell>
        <mxCell id="xkrA2vsa821dHbCefsV8-24" value="" style="edgeStyle=orthogonalEdgeStyle;rounded=0;orthogonalLoop=1;jettySize=auto;html=1;" edge="1" parent="2a3bc250acf0617d-7" source="xkrA2vsa821dHbCefsV8-22" target="xkrA2vsa821dHbCefsV8-23">
          <mxGeometry relative="1" as="geometry" />
        </mxCell>
        <mxCell id="xkrA2vsa821dHbCefsV8-25" value="AchatBillet" style="rounded=1;whiteSpace=wrap;html=1;arcSize=40;fontColor=#000000;fillColor=#ffffc0;strokeColor=#ff0000;" vertex="1" parent="2a3bc250acf0617d-7">
          <mxGeometry x="480" y="45" width="80" height="40" as="geometry" />
        </mxCell>
        <mxCell id="xkrA2vsa821dHbCefsV8-40" value="ToucherEcran" style="text;align=center;fontStyle=1;verticalAlign=middle;spacingLeft=3;spacingRight=3;strokeColor=none;rotatable=0;points=[[0,0.5],[1,0.5]];portConstraint=eastwest;" vertex="1" parent="2a3bc250acf0617d-7">
          <mxGeometry x="170" y="80" width="80" height="26" as="geometry" />
        </mxCell>
        <mxCell id="xkrA2vsa821dHbCefsV8-41" value="ChoixFilm&amp;horaire/&#xa;redirectionPageAchat" style="text;align=center;fontStyle=1;verticalAlign=middle;spacingLeft=3;spacingRight=3;strokeColor=none;rotatable=0;points=[[0,0.5],[1,0.5]];portConstraint=eastwest;" vertex="1" parent="2a3bc250acf0617d-7">
          <mxGeometry x="360" y="80" width="80" height="26" as="geometry" />
        </mxCell>
        <mxCell id="xkrA2vsa821dHbCefsV8-42" value="ChoixNBbillet(NBbillet&gt;0)/&#xa;redirectionPageCA&#xa;" style="text;align=center;fontStyle=1;verticalAlign=middle;spacingLeft=3;spacingRight=3;strokeColor=none;rotatable=0;points=[[0,0.5],[1,0.5]];portConstraint=eastwest;" vertex="1" parent="2a3bc250acf0617d-7">
          <mxGeometry x="580" y="90" width="80" height="26" as="geometry" />
        </mxCell>
        <mxCell id="xkrA2vsa821dHbCefsV8-47" value="" style="edgeStyle=orthogonalEdgeStyle;rounded=0;orthogonalLoop=1;jettySize=auto;html=1;" edge="1" parent="2a3bc250acf0617d-7" source="xkrA2vsa821dHbCefsV8-25" target="xkrA2vsa821dHbCefsV8-22">
          <mxGeometry relative="1" as="geometry">
            <mxPoint x="510" y="190" as="sourcePoint" />
            <mxPoint x="260" y="75" as="targetPoint" />
            <Array as="points">
              <mxPoint x="520" y="120" />
              <mxPoint x="145" y="120" />
            </Array>
          </mxGeometry>
        </mxCell>
        <mxCell id="xkrA2vsa821dHbCefsV8-48" value="AnnulerAchat/&#xa;RedirectionAccueil" style="text;align=center;fontStyle=1;verticalAlign=middle;spacingLeft=3;spacingRight=3;strokeColor=none;rotatable=0;points=[[0,0.5],[1,0.5]];portConstraint=eastwest;" vertex="1" parent="2a3bc250acf0617d-7">
          <mxGeometry x="320" y="130" width="80" height="26" as="geometry" />
        </mxCell>
        <mxCell id="xkrA2vsa821dHbCefsV8-51" value="AnnulerAchat/&#xa;RedirectionAccueil" style="text;align=center;fontStyle=1;verticalAlign=middle;spacingLeft=3;spacingRight=3;strokeColor=none;rotatable=0;points=[[0,0.5],[1,0.5]];portConstraint=eastwest;" vertex="1" parent="2a3bc250acf0617d-7">
          <mxGeometry x="560" y="137" width="80" height="26" as="geometry" />
        </mxCell>
        <mxCell id="xkrA2vsa821dHbCefsV8-44" value="ChoixTarif" style="text;align=center;fontStyle=1;verticalAlign=middle;spacingLeft=3;spacingRight=3;strokeColor=none;rotatable=0;points=[[0,0.5],[1,0.5]];portConstraint=eastwest;" vertex="1" parent="2a3bc250acf0617d-7">
          <mxGeometry x="800" y="59" width="80" height="26" as="geometry" />
        </mxCell>
        <mxCell id="xkrA2vsa821dHbCefsV8-52" value="Confirmer(non)/&#xa;RedirectionAccueil" style="text;align=center;fontStyle=1;verticalAlign=middle;spacingLeft=3;spacingRight=3;strokeColor=none;rotatable=0;points=[[0,0.5],[1,0.5]];portConstraint=eastwest;" vertex="1" parent="2a3bc250acf0617d-7">
          <mxGeometry x="410" y="220" width="80" height="26" as="geometry" />
        </mxCell>
        <mxCell id="xkrA2vsa821dHbCefsV8-55" value="" style="edgeStyle=orthogonalEdgeStyle;rounded=0;orthogonalLoop=1;jettySize=auto;html=1;" edge="1" parent="2a3bc250acf0617d-7" source="xkrA2vsa821dHbCefsV8-36" target="xkrA2vsa821dHbCefsV8-54">
          <mxGeometry relative="1" as="geometry" />
        </mxCell>
        <mxCell id="xkrA2vsa821dHbCefsV8-36" value="Confirmation" style="rounded=1;whiteSpace=wrap;html=1;arcSize=40;fontColor=#000000;fillColor=#ffffc0;strokeColor=#ff0000;" vertex="1" parent="2a3bc250acf0617d-7">
          <mxGeometry x="760" y="130" width="80" height="40" as="geometry" />
        </mxCell>
        <mxCell id="xkrA2vsa821dHbCefsV8-50" value="" style="edgeStyle=orthogonalEdgeStyle;rounded=0;orthogonalLoop=1;jettySize=auto;html=1;exitX=0;exitY=0.5;exitDx=0;exitDy=0;entryX=0.5;entryY=1;entryDx=0;entryDy=0;" edge="1" parent="2a3bc250acf0617d-7" source="xkrA2vsa821dHbCefsV8-36" target="xkrA2vsa821dHbCefsV8-22">
          <mxGeometry relative="1" as="geometry">
            <mxPoint x="540" y="105" as="sourcePoint" />
            <mxPoint x="165.0526315789475" y="105" as="targetPoint" />
            <Array as="points">
              <mxPoint x="720" y="150" />
              <mxPoint x="720" y="210" />
              <mxPoint x="130" y="210" />
              <mxPoint x="130" y="85" />
            </Array>
          </mxGeometry>
        </mxCell>
        <mxCell id="xkrA2vsa821dHbCefsV8-54" value="Paiement" style="rounded=1;whiteSpace=wrap;html=1;arcSize=40;fontColor=#000000;fillColor=#ffffc0;strokeColor=#ff0000;" vertex="1" parent="2a3bc250acf0617d-7">
          <mxGeometry x="760" y="250" width="80" height="40" as="geometry" />
        </mxCell>
        <mxCell id="xkrA2vsa821dHbCefsV8-56" value="Confirmer(oui)/CalculTotal" style="text;align=center;fontStyle=1;verticalAlign=middle;spacingLeft=3;spacingRight=3;strokeColor=none;rotatable=0;points=[[0,0.5],[1,0.5]];portConstraint=eastwest;" vertex="1" parent="2a3bc250acf0617d-7">
          <mxGeometry x="820" y="190" width="80" height="26" as="geometry" />
        </mxCell>
        <mxCell id="xkrA2vsa821dHbCefsV8-59" value="AnnulerAchat/&#xa;RedirectionAccueil" style="text;align=center;fontStyle=1;verticalAlign=middle;spacingLeft=3;spacingRight=3;strokeColor=none;rotatable=0;points=[[0,0.5],[1,0.5]];portConstraint=eastwest;" vertex="1" parent="2a3bc250acf0617d-7">
          <mxGeometry x="460" y="270" width="80" height="26" as="geometry" />
        </mxCell>
        <mxCell id="xkrA2vsa821dHbCefsV8-62" value="ChoisirPaiement(espece,cb)/&#xa;ActiveMachinePaiement" style="text;align=center;fontStyle=1;verticalAlign=middle;spacingLeft=3;spacingRight=3;strokeColor=none;rotatable=0;points=[[0,0.5],[1,0.5]];portConstraint=eastwest;" vertex="1" parent="2a3bc250acf0617d-7">
          <mxGeometry x="680" y="340" width="80" height="26" as="geometry" />
        </mxCell>
        <mxCell id="xkrA2vsa821dHbCefsV8-63" value="Billet en distribution" style="rounded=1;whiteSpace=wrap;html=1;arcSize=40;fontColor=#000000;fillColor=#ffffc0;strokeColor=#ff0000;" vertex="1" parent="2a3bc250acf0617d-7">
          <mxGeometry x="760" y="435" width="80" height="40" as="geometry" />
        </mxCell>
        <mxCell id="xkrA2vsa821dHbCefsV8-65" value="" style="edgeStyle=orthogonalEdgeStyle;rounded=0;orthogonalLoop=1;jettySize=auto;html=1;exitX=0.5;exitY=1;exitDx=0;exitDy=0;entryX=0.5;entryY=0;entryDx=0;entryDy=0;" edge="1" parent="2a3bc250acf0617d-7" source="xkrA2vsa821dHbCefsV8-54" target="xkrA2vsa821dHbCefsV8-63">
          <mxGeometry relative="1" as="geometry">
            <mxPoint x="850" y="280.0526315789475" as="sourcePoint" />
            <mxPoint x="930" y="380" as="targetPoint" />
            <Array as="points" />
          </mxGeometry>
        </mxCell>
        <mxCell id="xkrA2vsa821dHbCefsV8-67" value="Paiement(Valide)/&#xa;Distribuer NBbillet" style="text;align=center;fontStyle=1;verticalAlign=middle;spacingLeft=3;spacingRight=3;strokeColor=none;rotatable=0;points=[[0,0.5],[1,0.5]];portConstraint=eastwest;" vertex="1" parent="2a3bc250acf0617d-7">
          <mxGeometry x="700" y="500" width="80" height="26" as="geometry" />
        </mxCell>
        <mxCell id="xkrA2vsa821dHbCefsV8-68" value="" style="edgeStyle=orthogonalEdgeStyle;rounded=0;orthogonalLoop=1;jettySize=auto;html=1;exitX=1;exitY=0.5;exitDx=0;exitDy=0;entryX=1;entryY=0.5;entryDx=0;entryDy=0;" edge="1" parent="2a3bc250acf0617d-7" source="xkrA2vsa821dHbCefsV8-63" target="xkrA2vsa821dHbCefsV8-54">
          <mxGeometry relative="1" as="geometry">
            <mxPoint x="1030" y="390" as="sourcePoint" />
            <mxPoint x="930" y="380" as="targetPoint" />
            <Array as="points">
              <mxPoint x="1030" y="455" />
              <mxPoint x="1030" y="270" />
            </Array>
          </mxGeometry>
        </mxCell>
        <mxCell id="xkrA2vsa821dHbCefsV8-66" value="" style="ellipse;html=1;shape=endState;fillColor=#000000;strokeColor=#ff0000;" vertex="1" parent="2a3bc250acf0617d-7">
          <mxGeometry x="785" y="540" width="30" height="30" as="geometry" />
        </mxCell>
        <mxCell id="xkrA2vsa821dHbCefsV8-58" value="" style="edgeStyle=orthogonalEdgeStyle;rounded=0;orthogonalLoop=1;jettySize=auto;html=1;exitX=0.5;exitY=1;exitDx=0;exitDy=0;entryX=0.5;entryY=0;entryDx=0;entryDy=0;" edge="1" parent="2a3bc250acf0617d-7" source="xkrA2vsa821dHbCefsV8-63" target="xkrA2vsa821dHbCefsV8-66">
          <mxGeometry relative="1" as="geometry">
            <mxPoint x="990" y="410" as="targetPoint" />
          </mxGeometry>
        </mxCell>
        <mxCell id="xkrA2vsa821dHbCefsV8-72" value="Paiement(Invalide)/&#xa;RetourPaiement" style="text;align=center;fontStyle=1;verticalAlign=middle;spacingLeft=3;spacingRight=3;strokeColor=none;rotatable=0;points=[[0,0.5],[1,0.5]];portConstraint=eastwest;" vertex="1" parent="2a3bc250acf0617d-7">
          <mxGeometry x="940" y="340" width="80" height="26" as="geometry" />
        </mxCell>
        <mxCell id="xkrA2vsa821dHbCefsV8-34" value="Conditon d&#39;achat" style="rounded=1;whiteSpace=wrap;html=1;arcSize=40;fontColor=#000000;fillColor=#ffffc0;strokeColor=#ff0000;" vertex="1" parent="1">
          <mxGeometry x="680" y="15" width="80" height="40" as="geometry" />
        </mxCell>
        <mxCell id="xkrA2vsa821dHbCefsV8-35" value="" style="edgeStyle=orthogonalEdgeStyle;rounded=0;orthogonalLoop=1;jettySize=auto;html=1;" edge="1" parent="1" source="xkrA2vsa821dHbCefsV8-25" target="xkrA2vsa821dHbCefsV8-34">
          <mxGeometry relative="1" as="geometry" />
        </mxCell>
        <mxCell id="xkrA2vsa821dHbCefsV8-49" value="" style="edgeStyle=orthogonalEdgeStyle;rounded=0;orthogonalLoop=1;jettySize=auto;html=1;entryX=0.5;entryY=1;entryDx=0;entryDy=0;" edge="1" parent="1" source="xkrA2vsa821dHbCefsV8-34" target="xkrA2vsa821dHbCefsV8-22">
          <mxGeometry relative="1" as="geometry">
            <mxPoint x="530" y="65" as="sourcePoint" />
            <mxPoint x="155.0526315789475" y="65" as="targetPoint" />
            <Array as="points">
              <mxPoint x="720" y="100" />
              <mxPoint x="160" y="100" />
              <mxPoint x="160" y="55" />
            </Array>
          </mxGeometry>
        </mxCell>
        <mxCell id="xkrA2vsa821dHbCefsV8-37" value="" style="edgeStyle=orthogonalEdgeStyle;rounded=0;orthogonalLoop=1;jettySize=auto;html=1;exitX=1;exitY=0.5;exitDx=0;exitDy=0;" edge="1" parent="1" source="xkrA2vsa821dHbCefsV8-34" target="xkrA2vsa821dHbCefsV8-36">
          <mxGeometry relative="1" as="geometry">
            <mxPoint x="680" y="120" as="sourcePoint" />
          </mxGeometry>
        </mxCell>
        <mxCell id="xkrA2vsa821dHbCefsV8-60" value="" style="edgeStyle=orthogonalEdgeStyle;rounded=0;orthogonalLoop=1;jettySize=auto;html=1;exitX=0;exitY=0.5;exitDx=0;exitDy=0;entryX=0.5;entryY=1;entryDx=0;entryDy=0;" edge="1" parent="1" source="xkrA2vsa821dHbCefsV8-54">
          <mxGeometry relative="1" as="geometry">
            <mxPoint x="770" y="130" as="sourcePoint" />
            <mxPoint x="155" y="65" as="targetPoint" />
            <Array as="points">
              <mxPoint x="140" y="240" />
              <mxPoint x="140" y="50" />
              <mxPoint x="155" y="50" />
            </Array>
          </mxGeometry>
        </mxCell>
      </root>
    </mxGraphModel>
  </diagram>
</mxfile>
